<?xml version="1.0" encoding="utf-8"?>
<!-- Generator: Adobe Illustrator 24.1.0, SVG Export Plug-In . SVG Version: 6.00 Build 0)  -->
<svg version="1.1" id="Layer_1" xmlns="http://www.w3.org/2000/svg" xmlns:xlink="http://www.w3.org/1999/xlink" x="0px" y="0px"
	 viewBox="0 0 500 500" style="enable-background:new 0 0 500 500;" xml:space="preserve">
<g>
	<g>
		<g>
			<g>
				<g>
					<polygon class="st0" points="320.4,391.7 391.1,320.5 395.1,324.5 323.9,395.2 					"/>
				</g>
				<g>
					<path class="st0" d="M295.3,401.6c0,0,26.5-26.7,53-53.4c13.3-13.4,26.5-26.7,36.5-36.7c10-10,16.6-16.7,16.6-16.7l4,4
						c0,0-6.7,6.6-16.7,16.6c-10,9.9-23.4,23.2-36.7,36.5c-26.7,26.5-53.4,53-53.4,53L295.3,401.6z"/>
				</g>
				<g>
					<path class="st0" d="M274.8,406.8c0,0,32.8-33.1,65.5-66.1c32.8-33,65.6-66,65.6-66l4,4c0,0-33,32.8-66,65.6
						c-33.1,32.8-66.1,65.5-66.1,65.5L274.8,406.8z"/>
				</g>
				<g>
					<path class="st0" d="M257.2,409.3c0,0,37.7-38.1,75.4-76.2c37.8-38,75.6-76,75.6-76l4,4c0,0-38,37.8-76,75.6
						c-38.1,37.7-76.2,75.4-76.2,75.4L257.2,409.3z"/>
				</g>
				<g>
					<path class="st0" d="M241.9,409.4c0,0,41.5-42,83.1-84c41.7-41.9,83.3-83.8,83.3-83.8l4,4c0,0-41.9,41.7-83.8,83.3
						c-42,41.5-84,83.1-84,83.1L241.9,409.4z"/>
				</g>
				<g>
					<path class="st0" d="M227.8,408.2c0,0,44.7-45.3,89.5-90.5c44.9-45.1,89.7-90.3,89.7-90.3l4,4c0,0-45.1,44.9-90.3,89.7
						c-45.3,44.7-90.5,89.5-90.5,89.5L227.8,408.2z"/>
				</g>
				<g>
					<path class="st0" d="M214.6,406.2c0,0,47.5-48.1,95.1-96.2c23.8-24,47.6-48,65.5-66c17.9-18,29.8-30,29.8-30l4,4
						c0,0-12,11.9-30,29.8c-18,17.9-42,41.7-66,65.5c-48.1,47.5-96.2,95.1-96.2,95.1L214.6,406.2z"/>
				</g>
				<g>
					<path class="st0" d="M202.9,402.7c0,0,12.4-12.6,31-31.5c18.6-18.9,43.5-44,68.3-69.2c12.4-12.6,24.9-25.1,36.5-36.9
						c11.7-11.8,22.6-22.7,31.9-32.1c18.7-18.8,31.2-31.3,31.2-31.3l4,4c0,0-12.5,12.5-31.3,31.2c-9.4,9.3-20.4,20.3-32.1,31.9
						c-11.8,11.7-24.3,24.1-36.9,36.5c-25.2,24.9-50.3,49.7-69.2,68.3c-18.9,18.6-31.5,31-31.5,31L202.9,402.7z"/>
				</g>
				<g>
					<path class="st0" d="M191.1,399.2c0,0,51.6-52.3,103.2-104.6c51.7-52.1,103.5-104.3,103.5-104.3l4,4c0,0-52.1,51.7-104.3,103.5
						C245.3,349.5,193,401.1,193,401.1L191.1,399.2z"/>
				</g>
				<g>
					<path class="st0" d="M180.4,394.7c0,0,53.2-54,106.5-107.9c13.3-13.5,26.7-26.9,39.2-39.6c12.5-12.6,24.2-24.4,34.2-34.5
						c20-20.2,33.4-33.6,33.4-33.6l4,4c0,0-13.4,13.4-33.6,33.4c-10.1,10-21.9,21.7-34.5,34.2c-12.6,12.5-26.1,25.8-39.6,39.2
						c-54,53.2-107.9,106.5-107.9,106.5L180.4,394.7z"/>
				</g>
				<g>
					<path class="st0" d="M170.2,389.6c0,0,54.4-55.2,108.7-110.3c27.2-27.5,54.5-55,74.9-75.7c20.5-20.6,34.1-34.3,34.1-34.3l4,4
						c0,0-13.7,13.7-34.3,34.1c-20.6,20.4-48.1,47.7-75.7,74.9c-55.2,54.4-110.3,108.7-110.3,108.7L170.2,389.6z"/>
				</g>
				<g>
					<path class="st0" d="M161,383.5c0,0,55.3-56.1,110.5-112.1c27.7-28,55.4-55.9,76.2-76.9c20.8-20.9,34.7-34.9,34.7-34.9l4,4
						c0,0-14,13.9-34.9,34.7c-21,20.8-48.9,48.5-76.9,76.2c-56.1,55.3-112.1,110.5-112.1,110.5L161,383.5z"/>
				</g>
				<g>
					<path class="st0" d="M151.9,377.4c0,0,56-56.9,112-113.7c28.1-28.4,56.1-56.7,77.2-78c21.1-21.2,35.1-35.4,35.1-35.4l3.9,3.9
						c0,0-14.2,14.1-35.4,35.1c-21.3,21-49.6,49.1-78,77.2c-56.9,56-113.7,112-113.7,112L151.9,377.4z"/>
				</g>
				<g>
					<path class="st0" d="M143.2,370.8c0,0,56.4-57.2,112.8-114.5c28.3-28.6,56.5-57.1,77.7-78.5c21.2-21.4,35.4-35.7,35.4-35.7
						l3.9,3.9c0,0-14.3,14.1-35.7,35.4c-21.4,21.2-50,49.4-78.5,77.7c-57.2,56.4-114.5,112.8-114.5,112.8L143.2,370.8z"/>
				</g>
				<g>
					<path class="st0" d="M135.5,363.2c0,0,56.4-57.3,112.8-114.5c28.3-28.6,56.5-57.1,77.7-78.5c21.2-21.4,35.3-35.7,35.3-35.7
						l3.8,3.8c0,0-14.3,14.1-35.7,35.3c-21.4,21.2-50,49.4-78.5,77.7c-57.3,56.4-114.5,112.8-114.5,112.8L135.5,363.2z"/>
				</g>
				<g>
					<path class="st0" d="M128.4,355c0,0,56.2-57.1,112.5-114.3c28.2-28.5,56.4-57,77.5-78.4c21.2-21.3,35.3-35.6,35.3-35.6l3.8,3.8
						c0,0-14.2,14.1-35.6,35.3c-21.4,21.1-49.9,49.3-78.4,77.5c-57.1,56.2-114.3,112.5-114.3,112.5L128.4,355z"/>
				</g>
				<g>
					<path class="st0" d="M121.3,346.9c0,0,56-56.9,111.9-113.8c56.1-56.7,112.2-113.5,112.2-113.5l3.7,3.7
						c0,0-56.7,56.1-113.5,112.2c-56.9,56-113.8,111.9-113.8,111.9L121.3,346.9z"/>
				</g>
				<g>
					<path class="st0" d="M114.7,338.2c0,0,0.9-0.9,2.5-2.5c1.6-1.7,4-4,7-7.2c6-6.2,14.7-15,25.1-25.5
						c20.8-21.1,48.4-49.2,76.1-77.3c55.5-56.1,110.9-112.2,110.9-112.2l3.7,3.7c0,0-56.1,55.5-112.2,110.9
						c-28.1,27.7-56.2,55.3-77.3,76.1c-10.6,10.4-19.3,19-25.5,25.1c-3.1,3-5.5,5.4-7.2,7c-1.6,1.6-2.5,2.5-2.5,2.5L114.7,338.2z"/>
				</g>
				<g>
					<path class="st0" d="M109.1,328.5c0,0,54.4-55.4,108.9-110.7C272.5,162.5,327,107.3,327,107.3l3.6,3.6
						c0,0-55.2,54.6-110.5,109.1c-55.4,54.4-110.7,108.9-110.7,108.9L109.1,328.5z"/>
				</g>
				<g>
					<path class="st0" d="M104,318.2c0,0,53.2-54.1,106.3-108.1c53.3-53.9,106.5-107.9,106.5-107.9l3.5,3.5
						c0,0-53.9,53.3-107.9,106.5c-54.1,53.2-108.1,106.3-108.1,106.3L104,318.2z"/>
				</g>
				<g>
					<path class="st0" d="M99.4,307.5c0,0,51.6-52.5,103.2-105c25.9-26.2,51.7-52.4,71.1-72.1c9.7-9.8,17.8-18,23.4-23.7
						c5.7-5.7,8.9-9,8.9-9l3.4,3.4c0,0-3.3,3.2-9,8.9c-5.7,5.7-13.9,13.7-23.7,23.4c-19.7,19.4-45.9,45.2-72.1,71.1
						c-52.5,51.6-105,103.2-105,103.2L99.4,307.5z"/>
				</g>
				<g>
					<path class="st0" d="M95.3,296.2c0,0,49.7-50.6,99.4-101.2c49.8-50.5,99.6-100.9,99.6-100.9l3.3,3.3c0,0-50.5,49.8-100.9,99.6
						C146,246.6,95.4,296.3,95.4,296.3L95.3,296.2z"/>
				</g>
				<g>
					<path class="st0" d="M92.3,283.9c0,0,0.2-0.2,0.6-0.6c0.4-0.4,0.9-0.9,1.6-1.6c1.4-1.4,3.4-3.5,6-6.1
						c5.2-5.3,12.6-12.9,21.5-21.9c17.8-18.1,41.6-42.3,65.4-66.5c47.6-48.3,95.2-96.6,95.2-96.6l3.1,3.1c0,0-48.3,47.6-96.6,95.2
						c-24.2,23.8-48.4,47.5-66.5,65.4c-9.1,8.9-16.6,16.3-21.9,21.5c-2.6,2.6-4.7,4.6-6.1,6c-0.7,0.7-1.3,1.2-1.6,1.6
						C92.5,283.8,92.3,284,92.3,283.9L92.3,283.9z"/>
				</g>
				<g>
					<path class="st0" d="M90.2,270.6c0,0,44.7-45.5,89.4-91.1c44.8-45.5,89.6-90.9,89.6-90.9l3,3c0,0-45.5,44.8-90.9,89.6
						C135.8,225.9,90.2,270.6,90.2,270.6L90.2,270.6z"/>
				</g>
				<g>
					<path class="st0" d="M89.7,255.7c0,0,0.2-0.2,0.5-0.5c0.3-0.3,0.8-0.8,1.4-1.4c1.2-1.2,3-3,5.2-5.3c4.5-4.6,10.9-11.2,18.7-19
						c15.5-15.7,36.1-36.7,56.7-57.7c41.3-41.9,82.6-83.8,82.6-83.8l2.8,2.8c0,0-41.9,41.3-83.8,82.6c-21,20.6-42,41.2-57.7,56.7
						c-7.9,7.7-14.4,14.1-19,18.7c-2.3,2.3-4.1,4-5.3,5.2c-0.6,0.6-1.1,1.1-1.4,1.4C89.9,255.5,89.7,255.7,89.7,255.7L89.7,255.7z"
						/>
				</g>
				<g>
					<path class="st0" d="M89.7,240.2c0,0,37.4-38.1,74.8-76.2c37.4-38,74.9-76,74.9-76l2.6,2.6c0,0-38,37.4-76,74.9
						C127.8,202.9,89.7,240.3,89.7,240.2L89.7,240.2z"/>
				</g>
				<g>
					<path class="st0" d="M90.7,223.8c0,0,0.1-0.1,0.4-0.4c0.2-0.3,0.6-0.6,1.1-1.1c1-1,2.4-2.4,4.2-4.3c3.6-3.7,8.8-8.9,14.9-15.2
						c12.4-12.6,28.9-29.4,45.4-46.2c33-33.6,66.1-67.1,66.1-67.1l2.3,2.3c0,0-33.6,33-67.1,66.1c-16.8,16.5-33.6,33-46.2,45.4
						c-6.3,6.2-11.6,11.3-15.2,14.9c-1.8,1.8-3.3,3.2-4.3,4.2c-0.5,0.5-0.9,0.9-1.1,1.1C90.9,223.7,90.8,223.8,90.7,223.8
						L90.7,223.8z"/>
				</g>
				<g>
					<path class="st0" d="M95.3,203.7c0,0,26.7-27.2,53.5-54.5c13.4-13.6,26.8-27.2,36.8-37.4c5-5.1,9.2-9.4,12.1-12.3
						c2.9-3,4.6-4.7,4.6-4.7l2,2c0,0-1.7,1.7-4.7,4.6c-3,2.9-7.2,7.1-12.3,12.1c-10.2,10-23.8,23.4-37.4,36.8
						c-27.2,26.7-54.5,53.5-54.5,53.5L95.3,203.7z"/>
				</g>
				<g>
					<path class="st0" d="M105,178.4c0,0,18.1-18.4,36.2-36.9c9-9.2,18.1-18.4,24.9-25.3c6.8-6.9,11.3-11.5,11.3-11.5l1.6,1.6
						c0,0-4.6,4.5-11.5,11.3c-6.9,6.8-16.1,15.8-25.3,24.9c-18.4,18.1-36.9,36.2-36.9,36.2L105,178.4z"/>
				</g>
			</g>
		</g>
		<g>
			<g>
				<g>
					<path class="st0" d="M289.4,332c0,0,10.7-10.4,21.4-20.8c5.4-5.2,10.7-10.4,14.7-14.3c1-1,1.9-1.9,2.7-2.7
						c0.8-0.8,1.6-1.5,2.1-2c0.6-0.6,1.1-1,1.4-1.3c0.3-0.3,0.5-0.5,0.5-0.5l0.3,0.3c0,0-0.2,0.2-0.5,0.5c-0.3,0.3-0.7,0.8-1.3,1.4
						c-0.6,0.6-1.3,1.3-2,2.1c-0.8,0.8-1.7,1.7-2.7,2.7c-3.9,4-9.1,9.4-14.3,14.7c-10.4,10.7-20.8,21.4-20.8,21.4L289.4,332z"/>
				</g>
				<g>
					<path class="st0" d="M265.9,339.4c0,0,18.6-18.1,37.3-36.3c18.7-18.1,37.4-36.2,37.4-36.2l0.1,0.1c0,0-18.1,18.7-36.2,37.4
						c-18.1,18.6-36.3,37.3-36.3,37.3L265.9,339.4z"/>
				</g>
				<g>
					<path class="st0" d="M248.5,341c0,0,23.3-22.7,46.5-45.3c23.3-22.6,46.7-45.2,46.7-45.2l0,0c0,0-22.6,23.3-45.2,46.7
						c-22.7,23.3-45.3,46.5-45.3,46.5L248.5,341z"/>
				</g>
				<g>
					<path class="st0" d="M234.2,339.5c0,0,26.7-26,53.4-52.1c13.4-13,26.8-26,36.8-35.7c5-4.9,9.2-8.9,12.2-11.7
						c0.7-0.7,1.4-1.3,2-1.9c0.6-0.6,1-1,1.4-1.4c0.8-0.8,1.2-1.2,1.2-1.2l0.1,0.1c0,0-0.4,0.4-1.2,1.2c-0.4,0.4-0.8,0.9-1.4,1.4
						c-0.6,0.6-1.2,1.2-1.9,2c-2.8,2.9-6.9,7.1-11.7,12.2c-9.7,10-22.7,23.4-35.7,36.8c-26,26.7-52.1,53.4-52.1,53.4L234.2,339.5z"
						/>
				</g>
				<g>
					<path class="st0" d="M221.2,336.8c0,0,7.3-7.2,18.3-17.9c11-10.7,25.6-25,40.3-39.3c14.7-14.3,29.3-28.5,40.4-39.2
						c11-10.7,18.4-17.8,18.4-17.8l0.1,0.1c0,0-7.1,7.4-17.8,18.4c-10.7,11-24.9,25.7-39.2,40.4c-14.3,14.6-28.6,29.3-39.3,40.3
						c-10.7,11-17.9,18.3-17.9,18.3L221.2,336.8z"/>
				</g>
				<g>
					<path class="st0" d="M210.3,332.1c0,0,7.7-7.5,19.2-18.9c11.6-11.3,27-26.3,42.4-41.4c15.4-15,30.9-30,42.5-41.3
						c11.6-11.2,19.4-18.7,19.4-18.7l0.3,0.3c0,0-7.5,7.7-18.7,19.4c-11.3,11.6-26.3,27-41.3,42.5c-15.1,15.4-30.1,30.8-41.4,42.4
						c-11.3,11.5-18.9,19.2-18.9,19.2L210.3,332.1z"/>
				</g>
				<g>
					<path class="st0" d="M200,326.9c0,0,8-7.9,20-19.7c6-5.9,13-12.8,20.5-20.1c7.5-7.4,15.6-15.2,23.6-23
						c32.2-31.3,64.4-62.6,64.4-62.6l0.5,0.5c0,0-31.3,32.2-62.6,64.4c-7.8,8-15.7,16.1-23,23.6c-7.4,7.5-14.2,14.5-20.1,20.5
						c-11.8,12-19.7,20-19.7,20L200,326.9z"/>
				</g>
				<g>
					<path class="st0" d="M190.6,320.6c0,0,8.2-8.1,20.5-20.2c12.3-12.1,28.7-28.2,45.2-44.3c16.5-16,33-32.1,45.3-44.1
						c6.2-6,11.3-11,15-14.5c1.8-1.8,3.2-3.1,4.2-4.1c1-0.9,1.5-1.4,1.5-1.4l0.7,0.7c0,0-0.5,0.5-1.4,1.5c-0.9,1-2.3,2.4-4.1,4.2
						c-3.5,3.6-8.5,8.8-14.5,15c-12,12.4-28.1,28.8-44.1,45.3c-16.1,16.4-32.2,32.9-44.3,45.2c-12.1,12.3-20.2,20.5-20.2,20.5
						L190.6,320.6z"/>
				</g>
				<g>
					<path class="st0" d="M182.4,313.4c0,0,8.3-8.1,20.6-20.3c12.4-12.2,29-28.4,45.5-44.6c16.6-16.2,33.2-32.4,45.7-44.5
						c12.5-12.1,20.8-20.2,20.8-20.2l0.9,0.9c0,0-8.1,8.3-20.2,20.8c-12.1,12.5-28.3,29.1-44.5,45.7c-16.2,16.5-32.5,33.1-44.6,45.5
						c-12.2,12.4-20.3,20.6-20.3,20.6L182.4,313.4z"/>
				</g>
				<g>
					<path class="st0" d="M175.1,305.1c0,0,8.2-8.1,20.5-20.2c6.1-6.1,13.3-13.1,21-20.7c7.7-7.5,15.9-15.6,24.1-23.6
						c16.5-16.1,32.9-32.1,45.3-44.2c6.2-6,11.3-11,14.9-14.5c1.8-1.7,3.2-3.1,4.2-4.1c1-0.9,1.5-1.4,1.5-1.4l1.2,1.2
						c0,0-0.5,0.5-1.4,1.5c-0.9,1-2.3,2.4-4.1,4.2c-3.5,3.6-8.5,8.8-14.5,14.9c-12,12.4-28.1,28.8-44.2,45.3
						c-8.1,8.2-16.1,16.4-23.6,24.1c-7.6,7.7-14.6,14.8-20.7,21c-12.1,12.3-20.2,20.5-20.2,20.5L175.1,305.1z"/>
				</g>
				<g>
					<path class="st0" d="M168.9,295.9c0,0,8-7.9,20-19.7c6-5.9,13-12.8,20.5-20.2c7.5-7.4,15.5-15.2,23.5-23.1
						c16.1-15.7,32.1-31.4,44.2-43.1c12.1-11.7,20.1-19.6,20.1-19.6l1.4,1.4c0,0-7.8,8-19.6,20.1c-11.8,12-27.5,28.1-43.1,44.2
						c-7.9,8-15.7,16-23.1,23.5c-7.4,7.5-14.3,14.5-20.2,20.5c-11.8,12-19.7,20-19.7,20L168.9,295.9z"/>
				</g>
				<g>
					<path class="st0" d="M163.3,286.1c0,0,7.7-7.6,19.3-19.1c5.8-5.7,12.6-12.4,19.8-19.6c7.3-7.1,15-14.8,22.8-22.4
						c31.1-30.4,62.2-60.7,62.2-60.7l1.7,1.7c0,0-30.4,31.1-60.7,62.2c-7.6,7.7-15.2,15.5-22.4,22.8c-7.2,7.2-13.8,14-19.6,19.8
						c-11.5,11.6-19.1,19.3-19.1,19.3L163.3,286.1z"/>
				</g>
				<g>
					<path class="st0" d="M159.1,274.8c0,0,7.3-7.2,18.1-18c10.9-10.8,25.5-25.1,40.1-39.5c3.6-3.6,7.3-7.2,10.9-10.7
						c3.6-3.5,7.1-7,10.6-10.3c6.9-6.7,13.3-12.9,18.8-18.3c11-10.7,18.3-17.9,18.3-17.9l2,2c0,0-7.1,7.3-17.9,18.3
						c-5.4,5.5-11.6,11.9-18.3,18.8c-3.4,3.4-6.8,7-10.3,10.6c-3.5,3.6-7.1,7.2-10.7,10.9c-14.4,14.6-28.7,29.1-39.5,40.1
						c-10.8,10.9-18,18.1-18,18.1L159.1,274.8z"/>
				</g>
				<g>
					<path class="st0" d="M156,262.4c0,0,6.6-6.6,16.6-16.5c5-4.9,10.8-10.7,17.1-16.9c6.3-6.2,12.9-12.7,19.6-19.3
						c6.7-6.6,13.4-13.1,19.6-19.3c6.3-6.1,12.1-11.9,17.2-16.8c10-9.8,16.7-16.4,16.7-16.4l2.4,2.4c0,0-6.5,6.7-16.4,16.7
						c-4.9,5-10.6,10.9-16.8,17.2c-6.2,6.3-12.7,12.9-19.3,19.6c-6.6,6.7-13.1,13.3-19.3,19.6c-6.2,6.2-11.9,12.1-16.9,17.1
						c-9.9,10-16.5,16.6-16.5,16.6L156,262.4z"/>
				</g>
				<g>
					<path class="st0" d="M155.3,247.7c0,0,5.8-5.7,14.4-14.3c8.7-8.6,20.3-20,31.8-31.5c11.6-11.4,23.2-22.8,31.9-31.4
						c8.7-8.5,14.6-14.2,14.6-14.2l2.7,2.7c0,0-5.7,5.8-14.2,14.6c-8.6,8.7-20,20.3-31.4,31.9c-11.4,11.6-22.9,23.2-31.5,31.8
						c-8.6,8.7-14.3,14.4-14.3,14.4L155.3,247.7z"/>
				</g>
				<g>
					<path class="st0" d="M156.6,231c0,0,18.6-18.4,37.2-36.9c18.7-18.4,37.4-36.7,37.4-36.7l3.1,3.1c0,0-18.4,18.7-36.7,37.4
						c-18.4,18.6-36.9,37.2-36.9,37.2L156.6,231z"/>
				</g>
				<g>
					<polygon class="st0" points="163.8,208.4 208.8,163.9 212.3,167.4 167.8,212.4 					"/>
				</g>
			</g>
		</g>
	</g>
</g>
</svg>
